<svg width="100" height="100" viewBox="0 0 1024 1024" xmlns="http://www.w3.org/2000/svg">
  <defs>
    <linearGradient id="appleGradient" gradientTransform="rotate(90)">
      <stop offset="0%" stop-color="#f56b2a"></stop>
      <stop offset="25%" stop-color="#e34872"></stop>
      <stop offset="50%" stop-color="#9c52e6"></stop>
      <stop offset="75%" stop-color="#3aa7f8"></stop>
      <stop offset="100%" stop-color="#34c759"></stop>
    </linearGradient>
  </defs>
  <!-- Apple logo path -->
  <path fill="url(#appleGradient)" d="M747.9 545.4c-.6-66.1 29-115.9 89-152.5-33.2-48.6-83.3-75.3-152.1-80.8-63.9-5.1-134.1 37.4-159.3 37.4-26.3 0-92.9-35.9-143.8-35-105.8 1.6-219.4 61.7-219.4 240.9 0 49.5 9.1 100.7 27.2 153.6 24.2 68.9 111.7 238.4 202.7 235.7 47.6-1.2 81.3-33.8 143.5-33.8 61.3 0 92.9 33.8 143.8 33.2 91.9-1.4 171.4-156.9 195.3-225.9-124.8-59-127.9-173.2-127.9-192.8zM654.1 246.3c48.5-58.8 44.1-112 42.7-131.3-42.4 2.4-91.6 29-119.6 62.5-27.8 33.3-49.5 79.5-43.1 127.3 45.7 3.5 88.9-20.1 120-58.5z"></path>
</svg>
